#!OML:ASF E:\acrobat2\Project_11_07_03\Capture day 1\Session 1\Acrobat.ASF
:FULLY-SPECIFIED
:DEGREES
554
root 2.55768 2.72614 -12.2583 -129.103 24.5072 280.151
lowerback 13.0954 1.36695 2.55679
upperback 5.8269 2.70521 5.07736
thorax -1.35153 1.54057 3.47715
lowerneck -3.40734 -2.84387 -2.15951
upperneck -1.50221 -3.47143 14.7284
head 0.443298 -1.51119 4.71486
rclavicle 1.11319e-014 5.40694e-014
rhumerus -13.1122 21.8809 -94.0182
rradius 73.2706
rwrist -15.6649
rhand -46.7265 4.05241
rfingers 7.12502
rthumb -19.4443 -24.9954
lclavicle 1.11319e-014 5.40694e-014
lhumerus -34.5828 11.7986 89.5914
lradius 98.0984
lwrist -37.3292
lhand -54.0667 -12.1839
lfingers 7.12502
lthumb -26.4871 15.9848
rfemur -69.1514 -12.6955 0.165383
rtibia 97.8685
rfoot 1.06324 22.2683
rtoes -5.1888
lfemur -24.7568 29.634 -26.6321
ltibia 112.133
lfoot 3.46364 -19.0432
ltoes -70.9638
555
root 2.49415 2.74096 -12.2105 -130.591 23.8475 279.859
lowerback 12.9128 0.526151 3.63785
upperback 5.78147 1.68137 4.94106
thorax -1.22 1.03647 2.87215
lowerneck -3.65028 -3.09111 -2.31164
upperneck -0.215371 -3.97504 15.3407
head 0.921487 -1.6837 4.90414
rclavicle 7.15625e-014 6.36111e-015
rhumerus -13.5522 19.7024 -92.575
rradius 75.2289
rwrist -17.3182
rhand -46.6421 3.61111
rfingers 7.12502
rthumb -19.3632 -25.4448
lclavicle 7.15625e-014 6.36111e-015
lhumerus -33.1613 11.964 88.7351
lradius 94.61
lwrist -36.0318
lhand -55.4038 -10.3421
lfingers 7.12502
lthumb -27.7663 17.6272
rfemur -69.1223 -12.5291 0.796444
rtibia 96.0444
rfoot 1.5173 22.5665
rtoes -3.78757
lfemur -23.9332 29.349 -25.1353
ltibia 111.998
lfoot 3.65329 -19.6886
ltoes -70.7299
556
root 2.43355 2.75219 -12.1673 -131.979 23.1879 279.623
lowerback 12.6446 -0.240046 4.78549
upperback 5.71965 0.757899 4.81664
thorax -1.09721 0.586152 2.22475
lowerneck -3.86435 -3.33789 -2.34587
upperneck 0.939994 -4.47382 15.719
head 1.35089 -1.85893 5.00215
rclavicle -3.81667e-014 -2.76708e-013
rhumerus -13.9727 17.7384 -90.798
rradius 77.1967
rwrist -19.1712
rhand -46.7523 2.95314
rfingers 7.12502
rthumb -19.4691 -26.0921
lclavicle -3.81667e-014 -2.76708e-013
lhumerus -31.725 12.1843 87.8987
lradius 91.2996
lwrist -34.9065
lhand -56.7185 -8.89272
lfingers 7.12502
lthumb -29.0227 18.8671
rfemur -69.1769 -12.44 1.18864
rtibia 94.1119
rfoot 1.82936 22.6754
rtoes -2.4934
lfemur -23.199 29.1831 -23.725
ltibia 111.904
lfoot 3.89178 -19.9648
ltoes -70.5379
557
root 2.37474 2.75791 -12.1309 -133.271 22.5426 279.477
lowerback 12.2924 -0.918686 5.99287
upperback 5.66995 -0.050452 4.72677
thorax -0.949964 0.198814 1.56172
lowerneck -4.0127 -3.57216 -2.28834
upperneck 1.88694 -4.93266 15.9103
head 1.69938 -2.02671 5.0292
rclavicle -8.11041e-014 -7.31528e-014
rhumerus -14.3136 15.8837 -88.6702
rradius 79.0989
rwrist -21.0025
rhand -46.9211 2.40019
rfingers 7.12502
rthumb -19.6314 -26.6286
lclavicle -8.11041e-014 -7.31528e-014
lhumerus -30.2711 12.501 87.1085
lradius 88.2924
lwrist -34.0171
lhand -57.7993 -7.45622
lfingers 7.12502
lthumb -30.0544 20.1212
rfemur -69.2685 -12.39 1.37584
rtibia 92.0695
rfoot 1.85563 22.5428
rtoes -1.57492
lfemur -22.6128 29.0784 -22.4361
ltibia 111.866
lfoot 4.24968 -20.0026
ltoes -70.4218
558
root 2.31829 2.75768 -12.097 -134.51 21.987 279.377
lowerback 11.9107 -1.52727 7.09099
upperback 5.65165 -0.78619 4.67592
thorax -0.781158 -0.149578 0.988094
lowerneck -4.13406 -3.74814 -2.13111
upperneck 2.64106 -5.28725 15.9594
head 1.97128 -2.15348 4.99973
rclavicle -8.5875e-014 3.49861e-014
rhumerus -14.5073 14.153 -86.2327
rradius 80.828
rwrist -22.5672
rhand -47.0587 2.17623
rfingers 7.12502
rthumb -19.7637 -26.839
lclavicle -8.5875e-014 3.49861e-014
lhumerus -28.8621 13.0683 86.3491
lradius 85.7338
lwrist -33.409
lhand -58.4441 -5.79993
lfingers 7.12502
lthumb -30.6694 21.664
rfemur -69.4055 -12.3604 1.30878
rtibia 89.9422
rfoot 1.50346 22.1286
rtoes -1.31325
lfemur -22.1983 29.0798 -21.2921
ltibia 111.912
lfoot 4.70625 -19.9994
ltoes -70.3451
559
root 2.26264 2.75273 -12.0624 -135.794 21.6999 279.28
lowerback 11.6425 -2.02249 7.8563
upperback 5.68885 -1.40003 4.64956
thorax -0.628724 -0.438545 0.608761
lowerneck -4.24823 -3.87467 -1.95517
upperneck 3.20707 -5.5472 15.9583
head 2.17616 -2.24251 4.95573
rclavicle 7.31528e-014 3.49861e-014
rhumerus -14.5208 12.4525 -83.4807
rradius 82.2837
rwrist -23.6069
rhand -47.1562 2.48765
rfingers 7.12502
rthumb -19.8575 -26.5179
lclavicle 7.31528e-014 3.49861e-014
lhumerus -27.5489 13.8353 85.6703
lradius 83.7084
lwrist -33.0397
lhand -58.4687 -3.76323
lfingers 7.12502
lthumb -30.6929 23.6963
rfemur -69.5579 -12.2337 0.875856
rtibia 87.7431
rfoot 0.717289 21.4127
rtoes -1.89204
lfemur -21.8832 29.2161 -20.4107
ltibia 112.01
lfoot 5.23102 -20.133
ltoes -70.2926
